<svg width="148" height="154" viewBox="0 0 148 154" fill="none" xmlns="http://www.w3.org/2000/svg">
<rect y="6" width="148" height="148" rx="26" fill="black"/>
<path d="M34.1663 82.8486H21.311V87.4811H32.5835V94.3526H21.311V103H12.2004V75.977H34.1663V82.8486ZM37.0444 103V75.977H46.155V103H37.0444ZM50.5408 103V75.977H59.6514V95.9354H71.8503V103H50.5408ZM106.794 103H98.4945L98.4173 90.6852L92.5495 100.568H88.5346L82.6668 91.1099V103H74.3669V75.977H81.8561L90.6579 90.3764L99.228 75.977H106.717L106.794 103ZM120.155 96.1284H133.667V103H111.199V75.977H133.165V82.8486H120.155V86.0141H131.582V92.5769H120.155V96.1284ZM38.3519 136H34.9396L28.1991 126.521C27.4409 126.606 26.6826 126.648 25.84 126.648H17.92V136H14.8026V106.511H25.84C33.3387 106.511 37.8885 110.302 37.8885 116.621C37.8885 121.255 35.4451 124.499 31.1481 125.889L38.3519 136ZM25.7557 123.994C31.6536 123.994 34.7711 121.255 34.7711 116.621C34.7711 111.903 31.6536 109.207 25.7557 109.207H17.92V123.994H25.7557ZM67.2791 136L63.7404 128.122H47.3106L43.7719 136H40.5281L54.0089 106.511H57.0842L70.5651 136H67.2791ZM48.4481 125.594H62.603L55.5255 109.754L48.4481 125.594ZM97.0127 106.511H100.088V136H97.5182L78.5608 112.071V136H75.4433V106.511H78.0131L97.0127 130.439V106.511ZM130.482 131.197V121.255H133.473V132.503C130.693 134.989 126.733 136.253 122.646 136.253C113.673 136.253 107.101 129.891 107.101 121.255C107.101 112.619 113.673 106.258 122.689 106.258C127.154 106.258 131.03 107.69 133.642 110.513L131.704 112.493C129.218 110.049 126.269 109.038 122.815 109.038C115.527 109.038 110.177 114.22 110.177 121.255C110.177 128.249 115.527 133.472 122.773 133.472C125.595 133.472 128.207 132.84 130.482 131.197Z" fill="white"/>
<path fill-rule="evenodd" clip-rule="evenodd" d="M92.4407 18.1012C91.2226 17.8666 48.0629 27.0315 47.1365 27.7215C46.3182 28.3304 46.2492 28.847 46.6936 31.0349C46.9831 32.4607 47.288 40.5348 47.3708 48.9782C47.517 63.8446 47.5621 64.3689 48.8021 65.5942C50.0554 66.8326 50.5544 66.8562 72.0363 66.7112C93.3755 66.5674 94.0245 66.5283 95.2332 65.305C96.4299 64.094 96.4737 63.4901 96.4055 49.125C96.3615 39.8255 96.0978 33.9689 95.7052 33.5809C95.3113 33.1917 88.2694 32.9781 76.9142 33.0103C66.9261 33.0389 59.0906 32.9655 59.5023 32.8467C59.9144 32.7283 67.4734 31.1671 76.301 29.3783L78.0743 29.019C92.7765 26.0402 94.3083 25.7298 94.6938 24.892C94.7387 24.7945 94.768 24.6899 94.8007 24.5732C94.8117 24.5341 94.823 24.4937 94.8355 24.4518C95.4929 22.232 94.0524 18.4114 92.4407 18.1012ZM91.6412 23.5093L92.2992 23.888C92.9141 24.242 93.6512 23.6797 93.4725 22.9931L92.7171 20.092C92.6044 19.6593 92.1591 19.403 91.7284 19.5228L87.9674 20.5696C87.6083 20.6695 87.5474 21.1527 87.8704 21.3386L88.8748 21.9169C89.7119 22.462 90.8183 23.1019 91.6412 23.5093ZM79.5988 22.1721C79.4065 22.2117 79.2772 22.3457 79.2252 22.5041C78.8075 22.6157 78.8916 22.7321 79.3024 22.967C79.3326 23.0057 79.3697 23.0411 79.4139 23.072L84.3381 26.504C84.4641 26.5918 84.6236 26.6168 84.7705 26.5718L87.0572 25.8709C87.4648 25.7459 87.5391 25.2009 87.1798 24.9714L82.187 21.783C82.0772 21.7129 81.9444 21.6884 81.8169 21.7147L79.5988 22.1721ZM94.5263 38.716L94.4465 37.4844L94.4318 36.8057C94.4194 36.2296 94.3868 35.7831 94.3158 35.4682L94.2902 35.0732C94.2674 34.7228 93.8413 34.5637 93.5945 34.8135L93.0631 35.3513C92.708 35.6533 92.2632 36.1101 91.7065 36.7241L90.3875 38.059C90.2737 38.1741 90.2044 38.3081 90.1738 38.4462L89.6023 39.0898L90.298 39.0766C90.4288 39.2682 90.6432 39.4059 90.9143 39.4202L93.6857 39.5666C94.1641 39.5919 94.5573 39.194 94.5263 38.716ZM80.6448 39.0391L80.2719 39.0356L80.691 38.6852C80.7173 38.6375 80.7524 38.5926 80.7971 38.5524L85.2015 34.5907C85.2983 34.5036 85.4253 34.4577 85.5555 34.4628L87.8185 34.5515C88.2572 34.5687 88.4623 35.1025 88.148 35.409L83.851 39.5998C83.741 39.7071 83.5878 39.7578 83.4355 39.7374L81.065 39.4197C80.8407 39.3896 80.6896 39.2273 80.6448 39.0391ZM94.5244 52.3156C94.5788 60.6149 94.4025 63.5668 93.8168 64.1596C92.6616 65.3287 51.3539 65.5674 50.1845 64.4119C49.5565 63.7914 49.3616 61.0939 49.3385 52.7171C49.3223 46.7286 49.3134 41.692 49.3191 41.5244C49.3298 41.2215 93.9881 40.8032 94.2918 41.1033C94.3795 41.1899 94.4839 46.2355 94.5244 52.3156ZM75.1683 24.4733L73.545 23.4366C73.4352 23.3665 73.3024 23.342 73.1749 23.3683L70.9568 23.8257C70.5268 23.9144 70.4117 24.4746 70.7719 24.7256L75.6961 28.1576C75.8221 28.2455 75.9816 28.2705 76.1285 28.2255L78.4152 27.5246C78.8228 27.3996 78.8971 26.8546 78.5378 26.6251L77.5395 25.9876C77.0926 25.649 76.4496 25.2282 75.5948 24.7115C75.4521 24.6253 75.3099 24.5459 75.1683 24.4733ZM72.0293 39.1441L72.155 39.1433C72.2294 39.2539 72.3486 39.3366 72.5024 39.3572L74.8729 39.6749C75.0252 39.6953 75.1784 39.6445 75.2884 39.5373L79.5853 35.3465C79.8996 35.04 79.6945 34.5061 79.2558 34.4889L76.9928 34.4003C76.8627 34.3952 76.7357 34.441 76.6388 34.5281L72.2344 38.4899C72.0596 38.6471 72.0306 38.8774 72.1105 39.0619L72.0293 39.1441ZM62.9559 25.4755C62.7301 25.5221 62.5912 25.6986 62.5622 25.8921C62.2295 26.1364 62.8946 26.578 64.9023 27.8971C65.1044 28.0299 65.2947 28.1507 65.475 28.2601L67.6951 29.8074C67.8212 29.8953 67.9806 29.9203 68.1276 29.8753L70.4142 29.1744C70.8219 29.0494 70.8961 28.5044 70.5368 28.2749L65.544 25.0864C65.4343 25.0163 65.3015 24.9918 65.1739 25.0181L62.9559 25.4755ZM63.1503 39.1406L62.9689 39.1389L63.1084 39.0223C63.072 38.858 63.1162 38.6751 63.2625 38.5435L67.6669 34.5818C67.7638 34.4947 67.8908 34.4488 68.0209 34.4539L70.2839 34.5426C70.5365 34.5525 70.7117 34.7336 70.7548 34.9441L70.7647 34.9437L70.7565 34.9529C70.7851 35.1056 70.7442 35.2725 70.6134 35.4001L68.5317 37.4304C68.0037 38.0106 67.6234 38.3985 67.2742 38.6568L66.3165 39.5909C66.2065 39.6982 66.0533 39.7489 65.901 39.7285L63.5305 39.4108C63.3516 39.3868 63.2193 39.2788 63.1503 39.1406ZM54.8405 28.5252L59.0531 31.4613C59.1792 31.5491 59.3387 31.5742 59.4856 31.5291L61.7723 30.8282C62.1799 30.7033 62.2542 30.1582 61.8948 29.9288L56.9021 26.7403C56.7923 26.6702 56.6595 26.6457 56.532 26.672L54.3139 27.1294C53.8839 27.2181 53.7688 27.7782 54.129 28.0293L54.1338 28.0326C54.2099 28.1343 54.4073 28.2585 54.7063 28.4421C54.7473 28.4673 54.7922 28.4951 54.8405 28.5252ZM72.1187 47.8302L72.1187 47.8302C68.4621 45.7774 66.5932 44.7282 65.6501 45.2752C64.6641 45.847 64.6899 48.1633 64.7427 52.9009L64.7454 53.1446L64.7506 53.6199C64.798 58.0085 64.8219 60.223 65.7932 60.7772C66.7826 61.3418 68.7549 60.1837 72.7361 57.8461L73.1604 57.5971L73.5658 57.3592L73.5659 57.3592C77.2671 55.1883 79.1649 54.0752 79.1665 52.9594C79.1681 51.7852 77.0699 50.6081 72.7637 48.1922L72.7637 48.1922L72.7636 48.1921L72.3154 47.9406L72.1187 47.8302ZM52.694 36.0052C51.2915 37.2531 49.9784 38.2757 49.7762 38.2766C49.5737 38.2778 49.2956 37.8636 49.158 37.3555C48.926 36.5001 48.9496 36.4724 49.4817 36.9796C49.7968 37.2809 50.2617 37.3185 50.5143 37.0629C51.1959 36.3731 50.85 35.5942 49.9744 35.8472C49.3427 36.0294 49.2144 35.6841 49.2323 33.853C49.2439 32.635 49.4271 31.81 49.6392 32.0196C49.8513 32.2292 50.2397 32.183 50.5024 31.9171C50.7652 31.6511 50.7626 31.2186 50.4967 30.9558C50.2308 30.693 49.8412 30.6521 49.631 30.8648C49.3367 31.1627 49.2477 31.0773 49.2442 30.4935C49.2374 29.3464 50.009 29.5648 52.2374 31.3398C53.3494 32.2253 54.4812 33.127 54.7519 33.3429C55.1447 33.6565 54.7311 34.1919 52.694 36.0052ZM61.6343 34.9147L59.3713 34.826C59.2412 34.8209 59.1142 34.8668 59.0174 34.9539L54.6129 38.9156C54.296 39.2007 54.4584 39.7263 54.8809 39.7829L57.2514 40.1006C57.4037 40.121 57.5569 40.0703 57.6669 39.963L61.9639 35.7722C62.2782 35.4657 62.0731 34.9319 61.6343 34.9147Z" fill="white"/>
</svg>
