<svg width="307" height="166" viewBox="0 0 307 166" fill="none" xmlns="http://www.w3.org/2000/svg">
<path fill-rule="evenodd" clip-rule="evenodd" d="M259.107 33.6989C256.839 33.2621 176.489 50.3244 174.765 51.6089C173.241 52.7425 173.113 53.7043 173.94 57.7774C174.479 60.4319 175.047 75.4634 175.201 91.1823C175.473 118.859 175.557 119.835 177.865 122.116C180.199 124.422 181.128 124.466 221.12 124.196C260.847 123.928 262.056 123.855 264.306 121.578C266.534 119.323 266.615 118.199 266.488 91.4556C266.407 74.1429 265.915 63.2396 265.185 62.5174C264.451 61.7928 251.341 61.395 230.202 61.455C211.607 61.5082 197.02 61.3716 197.786 61.1505C198.553 60.93 212.626 58.0236 229.06 54.6934L232.362 54.0243L232.362 54.0243C259.732 48.4788 262.584 47.901 263.302 46.3412C263.385 46.1598 263.44 45.9651 263.501 45.7478L263.501 45.7474L263.501 45.7466L263.501 45.7466L263.501 45.7465L263.501 45.7461L263.502 45.7446L263.502 45.7441C263.522 45.6725 263.543 45.5985 263.565 45.5217C264.789 41.3892 262.108 34.2764 259.107 33.6989ZM257.618 43.7665L260.269 45.2928C260.884 45.6467 261.621 45.0845 261.442 44.3979L259.445 36.7267C259.332 36.2941 258.887 36.0377 258.456 36.1576L250.779 38.2942C250.111 38.4803 249.997 39.3799 250.598 39.726L252.47 40.8033C254.028 41.8178 256.086 43.0083 257.618 43.7665ZM263.04 72.8512L262.841 69.7884L262.814 68.5209C262.791 67.4478 262.73 66.6162 262.598 66.0299L262.55 65.2956C262.508 64.6432 261.715 64.347 261.255 64.812L260.265 65.8138C259.604 66.3759 258.777 67.2256 257.742 68.3676L254.206 71.9462C254.02 72.1344 253.952 72.3729 253.979 72.5976L253.823 72.7732L254.018 72.7695C254.118 73.0568 254.376 73.2885 254.732 73.3074L262.199 73.7019C262.678 73.7271 263.071 73.3292 263.04 72.8512ZM236.579 72.6735L236.452 72.6723L236.638 72.5176C236.663 72.4741 236.696 72.4332 236.737 72.3963L245.76 64.2802C245.857 64.1931 245.984 64.1472 246.114 64.1523L251.503 64.3635C251.942 64.3807 252.147 64.9145 251.833 65.2211L242.966 73.8692C242.856 73.9764 242.702 74.0272 242.55 74.0068L237.005 73.2636C236.7 73.2226 236.53 72.9366 236.579 72.6735ZM262.986 97.3955C263.088 112.846 262.759 118.342 261.669 119.445C259.518 121.622 182.616 122.066 180.439 119.915C179.27 118.76 178.907 113.738 178.864 98.1431C178.834 86.9943 178.817 77.6177 178.828 77.3057C178.848 76.7418 261.988 75.9631 262.553 76.5217C262.716 76.683 262.911 86.0764 262.986 97.3955ZM226.952 45.5621L223.782 43.5376C223.672 43.4675 223.539 43.443 223.412 43.4693L218.129 44.5586C217.699 44.6473 217.584 45.2075 217.944 45.4585L228.106 52.5408C228.232 52.6287 228.392 52.6537 228.538 52.6087L233.888 50.9691C234.295 50.8441 234.369 50.2991 234.01 50.0696L231.365 48.3803C230.533 47.7502 229.336 46.9669 227.745 46.0052C227.48 45.8449 227.215 45.6972 226.952 45.5621ZM203.049 48.5301L203.552 48.8807C204.054 49.4451 205.425 50.3498 207.839 51.9357C208.214 52.1822 208.567 52.4064 208.902 52.6096L213.21 55.6124C213.336 55.7003 213.496 55.7253 213.643 55.6802L218.992 54.0406C219.399 53.9157 219.474 53.3707 219.114 53.1412L208.886 46.6092C208.776 46.5391 208.644 46.5146 208.516 46.5409L203.234 47.6302C202.804 47.7189 202.689 48.2791 203.049 48.5301ZM214.595 69.6845L219.189 65.2046C219.503 64.8981 219.298 64.3642 218.859 64.347L213.47 64.1358C213.34 64.1307 213.213 64.1766 213.116 64.2637L204.093 72.3798C203.776 72.6649 203.938 73.1905 204.361 73.2471L209.906 73.9903C210.058 74.0107 210.212 73.9599 210.322 73.8527L212.255 71.967C212.905 71.4861 213.613 70.7641 214.595 69.6845ZM189.104 53.1032L197.122 58.6914C197.248 58.7793 197.407 58.8043 197.554 58.7593L202.903 57.1197C203.311 56.9947 203.385 56.4497 203.026 56.2202L192.798 49.6882C192.688 49.6181 192.555 49.5936 192.427 49.6199L187.145 50.7092C186.715 50.7979 186.6 51.3581 186.96 51.6091L187.792 52.1887C187.934 52.3779 188.301 52.609 188.857 52.9505C188.933 52.9968 189.015 53.0478 189.104 53.1032ZM221.274 89.0451C214.466 85.2234 210.987 83.2702 209.231 84.2885C207.396 85.3531 207.444 89.6652 207.542 98.4853L207.547 98.9388L207.557 99.8239C207.645 107.994 207.689 112.117 209.498 113.149C211.34 114.2 215.011 112.044 222.423 107.692L223.213 107.228L223.968 106.785C230.859 102.744 234.392 100.671 234.395 98.5941C234.398 96.4081 230.491 94.2166 222.474 89.7189L221.64 89.2507L221.274 89.0451ZM185.111 67.0307C182.5 69.3537 180.055 71.2576 179.679 71.2593C179.302 71.2615 178.784 70.4903 178.528 69.5445C178.096 67.9519 178.14 67.9003 179.131 68.8447C179.717 69.4056 180.583 69.4756 181.053 68.9997C182.322 67.7155 181.678 66.2655 180.048 66.7364C178.872 67.0757 178.633 66.4329 178.666 63.0239C178.688 60.7563 179.029 59.2205 179.424 59.6107C179.819 60.0009 180.542 59.9148 181.031 59.4198C181.52 58.9247 181.515 58.1194 181.02 57.6302C180.525 57.141 179.8 57.0647 179.409 57.4608C178.861 58.0153 178.695 57.8564 178.689 56.7695C178.676 54.6339 180.112 55.0406 184.261 58.3452C186.331 59.9936 188.438 61.6723 188.942 62.0743C189.674 62.6581 188.903 63.6548 185.111 67.0307ZM234.218 41.4799L239.5 40.3906C239.628 40.3643 239.761 40.3888 239.87 40.4589L250.099 46.9909C250.458 47.2203 250.384 47.7654 249.976 47.8903L244.627 49.5299C244.48 49.5749 244.321 49.5499 244.195 49.4621L234.033 42.3798C233.673 42.1287 233.788 41.5686 234.218 41.4799ZM235.562 64.2473L230.173 64.0361C230.043 64.031 229.916 64.0768 229.819 64.1639L220.796 72.28C220.479 72.5651 220.641 73.0907 221.064 73.1473L226.609 73.8905C226.761 73.9109 226.914 73.8602 227.024 73.7529L235.892 65.1048C236.206 64.7983 236.001 64.2645 235.562 64.2473ZM202.756 65.0397L197.367 64.8285C197.237 64.8234 197.11 64.8693 197.013 64.9564L187.99 73.0724C187.673 73.3576 187.836 73.8831 188.258 73.9398L193.803 74.6829C193.956 74.7033 194.109 74.6526 194.219 74.5453L203.086 65.8973C203.4 65.5907 203.195 65.0569 202.756 65.0397Z" fill="white"/>
<path d="M31.5504 58.6912H14.7672V64.7392H29.484V73.7104H14.7672V85H2.8728V49.72H31.5504V58.6912ZM35.308 85V49.72H47.2024V85H35.308ZM52.9283 85V49.72H64.8227V75.7768H80.7491V85H52.9283ZM126.371 85H115.535L115.434 68.9224L107.773 81.8248H102.531L94.8705 69.4768V85H84.0345V49.72H93.8121L105.303 68.5192L116.492 49.72H126.27L126.371 85ZM143.814 76.0288H161.454V85H132.121V49.72H160.799V58.6912H143.814V62.824H158.732V71.392H143.814V76.0288ZM37.015 128H32.56L23.76 115.625C22.77 115.735 21.78 115.79 20.68 115.79H10.34V128H6.27V89.5H20.68C30.47 89.5 36.41 94.45 36.41 102.7C36.41 108.75 33.22 112.985 27.61 114.8L37.015 128ZM20.57 112.325C28.27 112.325 32.34 108.75 32.34 102.7C32.34 96.54 28.27 93.02 20.57 93.02H10.34V112.325H20.57ZM74.7811 128L70.1611 117.715H48.7111L44.0911 128H39.8561L57.4561 89.5H61.4711L79.0711 128H74.7811ZM50.1961 114.415H68.6761L59.4361 93.735L50.1961 114.415ZM113.6 89.5H117.615V128H114.26L89.5099 96.76V128H85.4399V89.5H88.7949L113.6 120.74V89.5ZM157.296 121.73V108.75H161.201V123.435C157.571 126.68 152.401 128.33 147.066 128.33C135.351 128.33 126.771 120.025 126.771 108.75C126.771 97.475 135.351 89.17 147.121 89.17C152.951 89.17 158.011 91.04 161.421 94.725L158.891 97.31C155.646 94.12 151.796 92.8 147.286 92.8C137.771 92.8 130.786 99.565 130.786 108.75C130.786 117.88 137.771 124.7 147.231 124.7C150.916 124.7 154.326 123.875 157.296 121.73Z" fill="white"/>
</svg>
